<svg id="Layer_1" data-name="Layer 1" xmlns="http://www.w3.org/2000/svg" viewBox="0 0 413.7931 437.49766">
  <defs>
    <style>
      .cls-1 {
        fill: #1f1822;
      }

      .cls-2 {
        fill: none;
        stroke: #d91e3a;
        stroke-miterlimit: 10;
        stroke-width: 37px;
      }
    </style>
  </defs>
  <path class="cls-1" d="M89.37054,38.58642l320.9933-14.67957a48.70975,48.70975,0,0,1,50.935,48.6589v331.9943a43.8689,43.8689,0,0,1-42.13156,43.83448L93.112,461.31746A43.8689,43.8689,0,0,1,47.50575,417.483V82.40952A43.8689,43.8689,0,0,1,89.37054,38.58642Z" transform="translate(-47.50575 -23.85493)"/>
  <g>
    <line class="cls-2" x1="82.62767" y1="435.99521" x2="82.62767" y2="307.43662"/>
    <line class="cls-2" x1="136.58728" y1="433.85657" x2="132.77965" y2="248.77387"/>
    <line class="cls-2" x1="185.82345" y1="431.90514" x2="185.82345" y2="187.27261"/>
    <line class="cls-2" x1="240.65287" y1="429.73202" x2="240.65287" y2="129.55604"/>
    <line class="cls-2" x1="292.76055" y1="427.66678" x2="292.76055" y2="80.35504"/>
    <line class="cls-2" x1="346.68272" y1="425.52962" x2="346.68272" y2="187.27261"/>
  </g>
</svg>
