<svg id="Layer_1" data-name="Layer 1" xmlns="http://www.w3.org/2000/svg" viewBox="0 0 429.96882 385.02482">
  <defs>
    <style>
      .cls-1 {
        fill: #d91e3a;
      }

      .cls-2 {
        fill: #fff;
      }

      .cls-3 {
        fill: none;
        stroke: #fff;
        stroke-miterlimit: 10;
        stroke-width: 17px;
      }
    </style>
  </defs>
  <path class="cls-1" d="M100.101,67.92076,405.02935,57.51808a51.43049,51.43049,0,0,1,53.16507,50.00422L464.95911,356.586a67.38194,67.38194,0,0,1-63.59539,69.10631L102.10288,442.42517a54.90854,54.90854,0,0,1-57.93807-52.83956l-9.1044-251.88818A67.382,67.382,0,0,1,100.101,67.92076Z" transform="translate(-35.01559 -57.48759)"/>
  <circle class="cls-2" cx="173.36235" cy="197.33591" r="20.44903"/>
  <circle class="cls-2" cx="228.22969" cy="235.32099" r="20.44903"/>
  <circle class="cls-2" cx="337.36143" cy="145.48326" r="20.44903"/>
  <circle class="cls-2" cx="90.75987" cy="290.79127" r="20.44903"/>
  <polyline class="cls-3" points="90.76 290.791 173.362 197.336 228.23 235.321 337.361 145.483"/>
</svg>
