<svg id="Layer_1" data-name="Layer 1" xmlns="http://www.w3.org/2000/svg" viewBox="0 0 406.71131 383.42872">
  <defs>
    <style>
      .cls-1 {
        fill: #1f1822;
      }

      .cls-2 {
        fill: #fff;
      }

      .cls-3 {
        fill: #b81f31;
      }

      .cls-4 {
        fill: #d91e3a;
      }
    </style>
  </defs>
  <path class="cls-1" d="M396.22552,57.938,99.334,64.05439a53.30429,53.30429,0,0,0-52.198,54.75316l7.457,270.709a53.32209,53.32209,0,0,0,54.58594,51.82089l289.72781-7.12176a56.3102,56.3102,0,0,0,54.9209-56.30341V114.367A56.44717,56.44717,0,0,0,396.22552,57.938ZM295.47432,364.0459a115.93068,115.93068,0,1,1,73.85634-107.99876A115.373,115.373,0,0,1,295.47432,364.0459Z" transform="translate(-47.11628 -57.9266)"/>
  <path class="cls-2" d="M295.47432,364.0459A115.93274,115.93274,0,1,1,253.37249,140.089V256.04714Z" transform="translate(-47.11628 -57.9266)"/>
  <path class="cls-3" d="M369.33066,256.04714H253.37249V140.089A115.97031,115.97031,0,0,1,369.33066,256.04714Z" transform="translate(-47.11628 -57.9266)"/>
  <path class="cls-4" d="M369.33066,256.04714A115.83943,115.83943,0,0,1,295.47432,364.0459L253.37249,256.04714Z" transform="translate(-47.11628 -57.9266)"/>
</svg>
