<svg id="Layer_1" data-name="Layer 1" xmlns="http://www.w3.org/2000/svg" viewBox="0 0 427.3675 407.36377">
  <defs>
    <style>
      .cls-1 {
        fill: #d91e3a;
      }

      .cls-2 {
        fill: #fff;
      }

      .cls-3 {
        fill: none;
        stroke: #fff;
        stroke-miterlimit: 10;
        stroke-width: 17px;
      }
    </style>
  </defs>
  <path class="cls-1" d="M104.34186,45.97329H396.63579a67.53661,67.53661,0,0,1,67.53662,67.53662V385.80043a67.53662,67.53662,0,0,1-67.53662,67.53663H110.07429a67.53663,67.53663,0,0,1-67.52167-66.11512L36.82019,114.93142A67.53663,67.53663,0,0,1,104.34186,45.97329Z" transform="translate(-36.80491 -45.97329)"/>
  <circle class="cls-2" cx="111.12457" cy="79.24496" r="22.51221"/>
  <circle class="cls-2" cx="343.75073" cy="276.41102" r="22.51221"/>
  <circle class="cls-2" cx="99.33247" cy="209.9464" r="22.51221"/>
  <circle class="cls-2" cx="168.65933" cy="164.92199" r="22.51221"/>
  <circle class="cls-2" cx="168.65933" cy="253.89881" r="22.51221"/>
  <circle class="cls-2" cx="213.68375" cy="219.67826" r="22.51221"/>
  <circle class="cls-2" cx="236.19596" cy="308.65509" r="22.51221"/>
  <circle class="cls-2" cx="321.23852" cy="173.58184" r="22.51221"/>
  <circle class="cls-2" cx="213.68375" cy="130.70144" r="22.51221"/>
  <polyline class="cls-3" points="111.125 79.245 99.332 209.946 168.659 164.922 213.684 130.701 321.239 173.582 343.751 276.411 300.882 298.923 236.196 311.871 213.684 219.678 168.659 253.899 168.659 164.922 117.557 81.925"/>
  <line class="cls-3" x1="168.65933" y1="253.89881" x2="103.62051" y2="215.92623"/>
  <polyline class="cls-3" points="300.882 298.923 213.684 219.678 323.394 173.582"/>
  <line class="cls-3" x1="236.19596" y1="311.87112" x2="321.23852" y2="174.4874"/>
</svg>
