<svg id="Layer_1" data-name="Layer 1" xmlns="http://www.w3.org/2000/svg" viewBox="0 0 398.85057 387.71466">
  <defs>
    <style>
      .cls-1 {
        fill: #1f1822;
      }

      .cls-2 {
        fill: #fff;
      }

      .cls-3, .cls-4, .cls-5 {
        fill: none;
      }

      .cls-3 {
        stroke: #d91e3a;
        stroke-width: 29px;
      }

      .cls-3, .cls-4 {
        stroke-miterlimit: 10;
      }

      .cls-4, .cls-5 {
        stroke: #fff;
        stroke-linecap: round;
        stroke-width: 19px;
      }

      .cls-5 {
        stroke-linejoin: round;
      }
    </style>
  </defs>
  <path class="cls-1" d="M92.58278,61.742l318.08278-5.9594a38.41937,38.41937,0,0,1,39.139,38.41263V395.086a40.2211,40.2211,0,0,1-39.1853,40.20776L92.98,443.47651a40.97086,40.97086,0,0,1-42.026-40.95727V104.158A42.42344,42.42344,0,0,1,92.58278,61.742Z" transform="translate(-50.95402 -55.77573)"/>
  <path class="cls-2" d="M73.34425,141.90661l23.891-40.07913a4.85143,4.85143,0,0,1,8.47489.25239l20.79077,40.131a5.84872,5.84872,0,0,1-5.19317,8.53915H78.36811A5.84871,5.84871,0,0,1,73.34425,141.90661Z" transform="translate(-50.95402 -55.77573)"/>
  <g>
    <line class="cls-3" x1="103.99383" y1="319.66177" x2="103.99383" y2="243.69023"/>
    <line class="cls-3" x1="149.45221" y1="210.6862" x2="149.45221" y2="319.66177"/>
    <line class="cls-3" x1="202.3832" y1="193.85733" x2="202.3832" y2="318.57943"/>
    <line class="cls-3" x1="248.46429" y1="172.07771" x2="248.46429" y2="318.57943"/>
    <line class="cls-3" x1="298.90441" y1="132.84651" x2="298.90441" y2="318.57943"/>
    <line class="cls-3" x1="343.99499" y1="78.67009" x2="343.99499" y2="319.66177"/>
  </g>
  <polyline class="cls-4" points="48.883 69.329 48.883 319.662 360.553 319.662"/>
  <polyline class="cls-5" points="80.953 260.504 149.452 199.166 170.002 225.713 231.028 157.755 250.955 187.023 343.995 82.927"/>
  <path class="cls-2" d="M378.26,123.96023l36.26982-8.95515a4.79549,4.79549,0,0,1,5.70539,6.15259l-11.33653,34.50327a5.84872,5.84872,0,0,1-9.73653,2.26514l-23.68023-24.19685A5.84871,5.84871,0,0,1,378.26,123.96023Z" transform="translate(-50.95402 -55.77573)"/>
  <path class="cls-2" d="M397.23862,350.90079l35.39615,20.0897a3.707,3.707,0,0,1,.01928,6.43689l-35.385,20.36465a5.84871,5.84871,0,0,1-8.7661-5.06915V355.98734A5.84872,5.84872,0,0,1,397.23862,350.90079Z" transform="translate(-50.95402 -55.77573)"/>
</svg>
