<svg id="Layer_1" data-name="Layer 1" xmlns="http://www.w3.org/2000/svg" viewBox="0 0 401.56013 373.93798">
  <defs>
    <style>
      .cls-1 {
        fill: #d91e3a;
      }

      .cls-2 {
        fill: none;
        stroke: #fff;
        stroke-linecap: round;
        stroke-miterlimit: 10;
        stroke-width: 14px;
      }
    </style>
  </defs>
  <path class="cls-1" d="M94.98122,78.82543,397.8651,69.47716a47.21785,47.21785,0,0,1,48.66871,46.456l4.24035,270.77687a47.21785,47.21785,0,0,1-45.85523,47.93769L101.429,443.37231a47.21785,47.21785,0,0,1-48.5704-46.56319L49.22429,126.656A47.21784,47.21784,0,0,1,94.98122,78.82543Z" transform="translate(-49.21993 -69.45423)"/>
  <polyline class="cls-2" points="67.194 85.191 94.108 84.537 115.974 84.028 150.226 83.193 174.744 82.612 271.179 80.287 338.52 78.653"/>
  <polyline class="cls-2" points="272.814 196.227 176.378 198.552 151.861 199.133 117.573 199.969"/>
  <line class="cls-2" x1="95.70658" y1="200.47715" x2="67.19367" y2="201.16727"/>
  <line class="cls-2" x1="150.80733" y1="123.14722" x2="116.51919" y2="123.94631"/>
  <line class="cls-2" x1="271.72387" y1="120.20513" x2="175.28848" y2="122.52975"/>
  <line class="cls-2" x1="94.65324" y1="124.49115" x2="67.19367" y2="125.14494"/>
  <line class="cls-2" x1="151.31584" y1="160.99494" x2="117.06402" y2="161.83035"/>
  <polyline class="cls-2" points="175.833 160.414 272.269 158.089 338.52 156.491"/>
  <line class="cls-2" x1="95.19807" y1="162.33886" x2="67.19367" y2="163.02898"/>
  <polyline class="cls-2" points="118.117 239.669 152.406 238.833 176.923 238.252 273.358 235.928 338.52 234.366"/>
  <line class="cls-2" x1="96.28774" y1="240.21362" x2="67.19367" y2="240.90374"/>
  <line class="cls-2" x1="152.91402" y1="274.39279" x2="118.62588" y2="275.19188"/>
  <polyline class="cls-2" points="177.431 273.775 273.867 271.451 339.392 269.889"/>
  <line class="cls-2" x1="96.75993" y1="275.73671" x2="68.0654" y2="276.42683"/>
  <line class="cls-2" x1="153.42253" y1="309.87956" x2="119.13439" y2="310.71497"/>
  <polyline class="cls-2" points="340.264 305.376 274.339 306.974 177.904 309.298"/>
  <line class="cls-2" x1="97.26844" y1="311.22348" x2="68.93713" y2="311.9136"/>
</svg>
